<svg width="23" height="24" viewBox="0 0 23 24" fill="none" xmlns="http://www.w3.org/2000/svg">
<path d="M17.5 18.4167C18.1188 18.4167 18.7123 18.6625 19.1499 19.1001C19.5875 19.5377 19.8333 20.1312 19.8333 20.75C19.8333 21.3688 19.5875 21.9623 19.1499 22.3999C18.7123 22.8375 18.1188 23.0833 17.5 23.0833C16.8812 23.0833 16.2877 22.8375 15.8501 22.3999C15.4125 21.9623 15.1667 21.3688 15.1667 20.75C15.1667 20.1312 15.4125 19.5377 15.8501 19.1001C16.2877 18.6625 16.8812 18.4167 17.5 18.4167ZM17.5 19.5833C17.1906 19.5833 16.8938 19.7062 16.675 19.925C16.4562 20.1438 16.3333 20.4406 16.3333 20.75C16.3333 21.0594 16.4562 21.3562 16.675 21.575C16.8938 21.7937 17.1906 21.9167 17.5 21.9167C17.8094 21.9167 18.1062 21.7937 18.325 21.575C18.5438 21.3562 18.6667 21.0594 18.6667 20.75C18.6667 20.4406 18.5438 20.1438 18.325 19.925C18.1062 19.7062 17.8094 19.5833 17.5 19.5833ZM7 18.4167C7.61884 18.4167 8.21233 18.6625 8.64991 19.1001C9.0875 19.5377 9.33333 20.1312 9.33333 20.75C9.33333 21.3688 9.0875 21.9623 8.64991 22.3999C8.21233 22.8375 7.61884 23.0833 7 23.0833C6.38116 23.0833 5.78767 22.8375 5.35008 22.3999C4.9125 21.9623 4.66667 21.3688 4.66667 20.75C4.66667 20.1312 4.9125 19.5377 5.35008 19.1001C5.78767 18.6625 6.38116 18.4167 7 18.4167ZM7 19.5833C6.69058 19.5833 6.39383 19.7062 6.17504 19.925C5.95625 20.1438 5.83333 20.4406 5.83333 20.75C5.83333 21.0594 5.95625 21.3562 6.17504 21.575C6.39383 21.7937 6.69058 21.9167 7 21.9167C7.30942 21.9167 7.60616 21.7937 7.82496 21.575C8.04375 21.3562 8.16667 21.0594 8.16667 20.75C8.16667 20.4406 8.04375 20.1438 7.82496 19.925C7.60616 19.7062 7.30942 19.5833 7 19.5833ZM19.8333 4.41666H3.815L6.79 11.4167H16.3333C16.7183 11.4167 17.0567 11.23 17.2667 10.95L20.7667 6.28333C20.9183 6.085 21 5.84 21 5.58333C21 5.27391 20.8771 4.97717 20.6583 4.75837C20.4395 4.53958 20.1428 4.41666 19.8333 4.41666ZM16.3333 12.5833H6.84833L5.95 14.4033L5.83333 14.9167C5.83333 15.2261 5.95625 15.5228 6.17504 15.7416C6.39383 15.9604 6.69058 16.0833 7 16.0833H19.8333V17.25H7C6.38116 17.25 5.78767 17.0042 5.35008 16.5666C4.9125 16.129 4.66667 15.5355 4.66667 14.9167C4.66632 14.5208 4.76669 14.1314 4.95833 13.785L5.79833 12.07L1.56333 2.08333H0V0.916664H2.33333L3.325 3.25H19.8333C20.4522 3.25 21.0457 3.49583 21.4832 3.93341C21.9208 4.371 22.1667 4.96449 22.1667 5.58333C22.1667 6.16666 21.9683 6.65666 21.6417 7.05333L18.2467 11.5917C17.8267 12.1867 17.1267 12.5833 16.3333 12.5833Z" fill="#F4F4F4"/>
</svg>
