<svg width="30" height="22" viewBox="0 0 30 22" fill="none" xmlns="http://www.w3.org/2000/svg">
<path d="M6.6345 21.5C4.7955 21.5 3.23 20.8544 1.938 19.5631C0.646 18.2721 0 16.7026 0 14.8546C0 13.0906 0.6195 11.5596 1.8585 10.2616C3.09775 8.96336 4.55263 8.28124 6.22313 8.21524C6.51488 5.99874 7.49525 4.15974 9.16425 2.69824C10.8335 1.23649 12.789 0.505615 15.0308 0.505615C17.5098 0.505615 19.6 1.37886 21.3015 3.12536C23.003 4.87186 23.8538 6.98649 23.8538 9.46924V11.2614H24.777C26.2378 11.2306 27.4735 11.7075 28.4843 12.692C29.4948 13.6762 30 14.9026 30 16.3711C30 17.7936 29.5104 19.004 28.5311 20.0022C27.5521 21.0007 26.3514 21.5 24.9289 21.5H16.5578C15.9433 21.5 15.4243 21.2882 15.0008 20.8647C14.5773 20.4412 14.3655 19.9222 14.3655 19.3077V9.99424L10.9905 13.3827L10.0808 12.5019L15 7.58261L19.9193 12.5019L19.0095 13.3827L15.6345 9.99424V19.3077C15.6345 19.5385 15.7308 19.75 15.9233 19.9422C16.1155 20.1345 16.327 20.2306 16.5578 20.2306H24.8711C25.9456 20.2306 26.8575 19.855 27.6068 19.1037C28.356 18.3522 28.7306 17.4435 28.7306 16.3775C28.7306 15.3117 28.356 14.4041 27.6068 13.6546C26.8575 12.9054 25.9434 12.5307 24.8644 12.5307H22.5848V9.46924C22.5848 7.35799 21.8464 5.54786 20.3696 4.03886C18.8931 2.52961 17.0963 1.77499 14.979 1.77499C12.8615 1.77499 11.0604 2.52961 9.57563 4.03886C8.09063 5.54786 7.34813 7.35799 7.34813 9.46924H6.546C5.1255 9.46924 3.89088 9.99299 2.84212 11.0405C1.79362 12.0877 1.26937 13.3639 1.26937 14.8689C1.26937 16.3406 1.79313 17.6021 2.84063 18.6534C3.88813 19.7049 5.15275 20.2306 6.6345 20.2306H10.8461V21.5H6.6345Z" fill="#B7B7B7"/>
</svg>
