<svg width="22" height="22" viewBox="0 0 22 22" fill="none" xmlns="http://www.w3.org/2000/svg">
<path d="M11.0327 17.1025C11.2905 17.1025 11.5081 17.0135 11.6854 16.8354C11.8628 16.6573 11.9514 16.4393 11.9514 16.1815C11.9514 15.9234 11.8624 15.7058 11.6842 15.5287C11.5061 15.3514 11.2881 15.2627 11.03 15.2627C10.7722 15.2627 10.5546 15.3518 10.3773 15.5299C10.2002 15.708 10.1116 15.9261 10.1116 16.1841C10.1116 16.4419 10.2006 16.6595 10.3788 16.8368C10.5569 17.014 10.7748 17.1025 11.0327 17.1025ZM10.4301 13.2391H11.5565C11.5864 12.732 11.6817 12.3199 11.8423 12.0027C12.0031 11.6858 12.3341 11.2813 12.8352 10.7891C13.3557 10.2686 13.7431 9.80232 13.9975 9.39029C14.2518 8.97826 14.379 8.50129 14.379 7.95937C14.379 7.03985 14.0559 6.30708 13.4097 5.76108C12.7636 5.21528 11.9993 4.94237 11.1167 4.94237C10.2776 4.94237 9.56529 5.17046 8.97963 5.62663C8.39415 6.08279 7.96531 6.60701 7.69308 7.19929L8.76525 7.6435C8.95231 7.21883 9.21967 6.84346 9.56733 6.51737C9.91519 6.19129 10.4167 6.02825 11.0717 6.02825C11.8285 6.02825 12.3812 6.23572 12.7299 6.65067C13.0783 7.06581 13.2525 7.52246 13.2525 8.02062C13.2525 8.42449 13.1434 8.78528 12.925 9.103C12.7066 9.42092 12.4225 9.74068 12.0725 10.0623C11.3964 10.6859 10.9536 11.2146 10.7442 11.6484C10.5348 12.0822 10.4301 12.6124 10.4301 13.2391ZM11.0038 21.5C9.55188 21.5 8.18678 21.2245 6.9085 20.6734C5.63042 20.1224 4.51858 19.3745 3.573 18.4299C2.62742 17.4853 1.8789 16.3744 1.32746 15.0973C0.775819 13.8204 0.5 12.4559 0.5 11.0038C0.5 9.55188 0.775528 8.18678 1.32658 6.9085C1.87764 5.63042 2.62547 4.51858 3.57008 3.573C4.51469 2.62742 5.62556 1.8789 6.90267 1.32746C8.17958 0.775819 9.5441 0.5 10.9962 0.5C12.4481 0.5 13.8132 0.775529 15.0915 1.32658C16.3696 1.87764 17.4814 2.62547 18.427 3.57008C19.3726 4.51469 20.1211 5.62556 20.6725 6.90267C21.2242 8.17958 21.5 9.5441 21.5 10.9962C21.5 12.4481 21.2245 13.8132 20.6734 15.0915C20.1224 16.3696 19.3745 17.4814 18.4299 18.427C17.4853 19.3726 16.3744 20.1211 15.0973 20.6725C13.8204 21.2242 12.4559 21.5 11.0038 21.5ZM11 20.3333C13.6056 20.3333 15.8125 19.4292 17.6208 17.6208C19.4292 15.8125 20.3333 13.6056 20.3333 11C20.3333 8.39444 19.4292 6.1875 17.6208 4.37917C15.8125 2.57083 13.6056 1.66667 11 1.66667C8.39444 1.66667 6.1875 2.57083 4.37917 4.37917C2.57083 6.1875 1.66667 8.39444 1.66667 11C1.66667 13.6056 2.57083 15.8125 4.37917 17.6208C6.1875 19.4292 8.39444 20.3333 11 20.3333Z" fill="white"/>
</svg>
