<svg width="22" height="22" viewBox="0 0 22 22" fill="none" xmlns="http://www.w3.org/2000/svg">
<path d="M4.22867 17.3992C5.22034 16.6852 6.27267 16.1209 7.38567 15.7063C8.49789 15.291 9.70267 15.0833 11 15.0833C12.2973 15.0833 13.5021 15.291 14.6143 15.7063C15.7266 16.1217 16.7789 16.6856 17.7713 17.398C18.5413 16.6008 19.1608 15.6597 19.6298 14.5747C20.0988 13.4881 20.3333 12.2966 20.3333 11C20.3333 8.41389 19.4245 6.21161 17.6068 4.39317C15.7892 2.57472 13.5869 1.66589 11 1.66667C8.41311 1.66744 6.21083 2.57667 4.39317 4.39433C2.5755 6.212 1.66667 8.41389 1.66667 11C1.66667 12.2966 1.90117 13.4881 2.37017 14.5747C2.83917 15.6604 3.45867 16.6016 4.22867 17.398M11.0012 11.5833C10.0181 11.5833 9.18856 11.2458 8.51267 10.5707C7.83678 9.89556 7.49922 9.06683 7.5 8.0845C7.50078 7.10217 7.83833 6.27267 8.51267 5.596C9.187 4.91933 10.0161 4.58178 11 4.58333C11.9839 4.58489 12.813 4.92244 13.4873 5.596C14.1617 6.26956 14.4992 7.09867 14.5 8.08333C14.5008 9.068 14.1632 9.89711 13.4873 10.5707C12.8114 11.2442 11.9827 11.5818 11.0012 11.5833ZM11 21.5C9.53545 21.5 8.16461 21.2274 6.8875 20.6822C5.61039 20.1369 4.49895 19.3918 3.55317 18.4468C2.60739 17.5018 1.86228 16.3904 1.31783 15.1125C0.773391 13.8346 0.500779 12.4638 0.500002 11C0.499224 9.53622 0.771835 8.16539 1.31783 6.8875C1.86383 5.60961 2.60895 4.49817 3.55317 3.55317C4.49895 2.60817 5.61039 1.86306 6.8875 1.31783C8.16461 0.772611 9.53545 0.5 11 0.5C12.4646 0.5 13.8354 0.772611 15.1125 1.31783C16.3896 1.86306 17.5011 2.60817 18.4468 3.55317C19.3926 4.49817 20.1377 5.60961 20.6822 6.8875C21.2266 8.16539 21.4992 9.53622 21.5 11C21.5008 12.4638 21.2282 13.8346 20.6822 15.1125C20.1362 16.3904 19.3911 17.5018 18.4468 18.4468C17.5011 19.3918 16.3896 20.1369 15.1125 20.6822C13.8354 21.2274 12.4646 21.5 11 21.5ZM11 20.3333C12.0757 20.3333 13.1338 20.1451 14.1745 19.7687C15.2152 19.393 16.1147 18.8781 16.873 18.224C16.1154 17.615 15.2385 17.1339 14.2422 16.7808C13.2458 16.4277 12.1651 16.2508 11 16.25C9.83489 16.2492 8.75028 16.4223 7.74617 16.7692C6.74206 17.1161 5.86861 17.601 5.12583 18.224C5.88417 18.8773 6.78406 19.3922 7.8255 19.7687C8.86695 20.1451 9.92511 20.3333 11 20.3333ZM11 10.4167C11.6549 10.4167 12.2075 10.1915 12.6578 9.74117C13.1082 9.29083 13.3333 8.73822 13.3333 8.08333C13.3333 7.42844 13.1082 6.87583 12.6578 6.4255C12.2075 5.97517 11.6549 5.75 11 5.75C10.3451 5.75 9.7925 5.97517 9.34217 6.4255C8.89184 6.87583 8.66667 7.42844 8.66667 8.08333C8.66667 8.73822 8.89184 9.29083 9.34217 9.74117C9.7925 10.1915 10.3451 10.4167 11 10.4167Z" fill="#F4F4F4"/>
</svg>
